<svg width="61" height="70" viewBox="0 0 61 70" fill="none" xmlns="http://www.w3.org/2000/svg">
<g clip-path="url(#clip0_28_8)">
<path d="M58.4454 31.9422C58.8983 31.9401 59.3336 32.1189 59.6558 32.4393C59.978 32.7598 60.1608 33.1957 60.1642 33.6517V54.8512C60.1436 61.5826 59.2635 65.4717 56.4633 67.6333C54.8184 68.7721 52.9104 69.4663 50.9223 69.6493C48.9363 69.9077 46.9346 70.0249 44.9322 70H15.2115C5.78641 70 1.8997 68.3321 0.570577 62.0138C0.125537 59.5706 -0.0664705 57.0875 -0.00236346 54.6044V15.3749C-0.00236346 2.8604 2.83653 1.788e-05 15.209 1.788e-05H26.7013C27.1543 -0.00205811 27.5895 0.176718 27.9117 0.49716C28.2339 0.817602 28.4168 1.25357 28.4202 1.70949V9.93989C28.4202 26.1799 34.1238 31.9422 50.2177 31.9422H58.4454ZM34.9858 9.93989C34.9858 22.4544 37.8247 25.3355 50.2126 25.3355H57.2453C57.4829 25.3319 57.7142 25.2579 57.9103 25.1228C58.1064 24.9877 58.2587 24.7974 58.3481 24.5758C58.4375 24.3542 58.4602 24.111 58.4132 23.8765C58.3663 23.642 58.2518 23.4266 58.0841 23.2571L37.0246 2.05762C36.8554 1.89087 36.6411 1.77811 36.4085 1.73347C36.1759 1.68883 35.9354 1.7143 35.7171 1.80669C35.4989 1.89907 35.3125 2.05426 35.1815 2.2528C35.0505 2.45134 34.9806 2.68439 34.9806 2.92275L34.9858 9.93989Z" fill="white"/>
</g>
<defs>
<clipPath id="clip0_28_8">
<rect width="60.1562" height="70" fill="white"/>
</clipPath>
</defs>
</svg>
