<svg width="70" height="70" viewBox="0 0 70 70" fill="none" xmlns="http://www.w3.org/2000/svg">
<g clip-path="url(#clip0_28_2)">
<path fill-rule="evenodd" clip-rule="evenodd" d="M7.77778 70H62.2222C66.5178 70 70 66.5178 70 62.2222V7.77778C70 3.48223 66.5178 0 62.2222 0H7.77778C3.48223 0 0 3.48223 0 7.77778V62.2222C0 66.5178 3.48223 70 7.77778 70Z" fill="white"/>
<path fill-rule="evenodd" clip-rule="evenodd" d="M60.2777 60.2777H49.8901V42.5853C49.8901 37.7346 48.047 35.0238 44.2076 35.0238C40.0308 35.0238 37.8486 37.8448 37.8486 42.5853V60.2777H27.8379V26.574H37.8486V31.1139C37.8486 31.1139 40.8586 25.5443 48.0108 25.5443C55.1596 25.5443 60.2777 29.9098 60.2777 38.9386V60.2777ZM15.8951 22.1608C12.4853 22.1608 9.72217 19.376 9.72217 15.9415C9.72217 12.507 12.4853 9.72217 15.8951 9.72217C19.305 9.72217 22.0665 12.507 22.0665 15.9415C22.0665 19.376 19.305 22.1608 15.8951 22.1608ZM10.726 60.2777H21.1646V26.574H10.726V60.2777Z" fill="black"/>
</g>
<defs>
<clipPath id="clip0_28_2">
<rect width="70" height="70" fill="white"/>
</clipPath>
</defs>
</svg>
